<?xml version="1.0" encoding="UTF-8"?>
<svg version="1.1" xmlns="http://www.w3.org/2000/svg" width="500" height="500">
<path d="M0 0 C165 0 330 0 500 0 C500 165 500 330 500 500 C335 500 170 500 0 500 C0 335 0 170 0 0 Z " fill="#296EB4" transform="translate(0,0)"/>
<path d="M0 0 C0.19271351 8.74616006 -0.30345574 17.15102871 -1.5 25.8125 C-1.64308594 26.89853516 -1.78617188 27.98457031 -1.93359375 29.10351562 C-2.28160105 31.73677089 -2.6371149 34.3687613 -3 37 C-6.10429422 36.7096481 -9.20842817 36.41771332 -12.3125 36.125 C-13.15490234 36.04636719 -13.99730469 35.96773437 -14.86523438 35.88671875 C-15.75146484 35.80292969 -16.63769531 35.71914062 -17.55078125 35.6328125 C-19.03215576 35.49335205 -19.03215576 35.49335205 -20.54345703 35.35107422 C-23.11688913 35.08969582 -25.68159772 34.80407701 -28.24951172 34.49658203 C-39.15766321 33.21658987 -49.9360265 32.62730573 -60.91894531 32.62939453 C-63.52732587 32.62495347 -66.13409586 32.58823426 -68.7421875 32.55078125 C-79.17962066 32.48095283 -88.79774575 32.84830931 -97.5 39.375 C-102.13648479 44.24330903 -103.19353262 47.84619595 -103.375 54.5 C-103.19778655 60.99782636 -102.31559374 64.74406729 -97.57421875 69.36328125 C-93.21856747 72.90568555 -88.13031344 74.68838872 -82.9375 76.6875 C-81.84985352 77.11611328 -80.76220703 77.54472656 -79.64160156 77.98632812 C-71.25957869 81.24402212 -62.77489787 84.14240737 -54.25 87 C-20.84544922 98.27420178 -20.84544922 98.27420178 -9 110 C-8.35160156 110.61101562 -7.70320312 111.22203125 -7.03515625 111.8515625 C4.21823104 123.41423951 5.32379169 139.34999609 5.23461914 154.63671875 C4.91213659 172.3080939 0.23837657 189.62629341 -12.1875 202.75 C-32.42550881 221.68454383 -57.82684364 224.92013591 -84.41601562 224.18359375 C-105.22259937 223.1177524 -126.82946024 219.2027534 -147 214 C-145.71667426 202.32719672 -144.3874977 190.66088494 -143 179 C-133.84042488 179.34722572 -124.7937367 179.98592628 -115.69799805 181.14453125 C-104.05564193 182.608914 -92.59536803 183.30420976 -80.875 183.3125 C-79.85391144 183.31746994 -79.85391144 183.31746994 -78.81219482 183.32254028 C-67.52657492 183.35520513 -57.35064821 182.89950742 -48 176 C-42.60314042 170.37991265 -40.70800071 163.90952621 -40.5 156.1875 C-40.63950873 150.65946671 -41.02788126 146.49656888 -44.62841797 142.16674805 C-47.53110235 139.51476906 -50.66486931 137.80519027 -54.1640625 136.0859375 C-55.21625473 135.56549866 -55.21625473 135.56549866 -56.28970337 135.0345459 C-63.35390063 131.6536559 -70.63293774 129.33442239 -78.1383667 127.15298462 C-102.10345539 120.15638204 -129.59059065 111.7959959 -143 89 C-150.93670448 72.7583934 -152.43119725 50.62219144 -146.875 33.3125 C-144.48914379 27.52983157 -141.59169987 22.12131869 -138 17 C-137.278125 15.96875 -136.55625 14.9375 -135.8125 13.875 C-103.61320588 -22.18414641 -41.08223708 -7.6753043 0 0 Z " fill="#FDFEFE" transform="translate(230,148)"/>
<path d="M0 0 C2.54292075 0.00315138 5.08466421 -0.02034936 7.62744141 -0.0456543 C26.40580641 -0.11959384 46.50234054 2.24708652 61.16650391 15.13598633 C70.3817588 24.50231097 76.04009364 37.09759825 76.31103516 50.31567383 C76.33004883 50.96584473 76.3490625 51.61601562 76.36865234 52.28588867 C76.83808806 69.85124978 74.91728974 85.89145617 62.31103516 99.31567383 C59.06358848 102.42068863 55.73228788 105.40382292 52.31103516 108.31567383 C53.68775391 109.25926758 53.68775391 109.25926758 55.09228516 110.22192383 C66.66505213 118.24572996 76.59426241 125.5028708 79.92822266 139.99926758 C82.71093395 164.1066338 79.18993733 186.48722908 65.06103516 206.50317383 C49.85191491 222.0579559 28.77642235 225.25921214 8.00805664 225.66699219 C-4.83543247 225.75067718 -17.10434782 224.823144 -29.68896484 222.31567383 C-31.17517334 222.02635986 -31.17517334 222.02635986 -32.69140625 221.73120117 C-43.4670365 219.61719462 -54.12105371 217.31264022 -64.68896484 214.31567383 C-64.04755412 202.64745756 -63.38297086 190.98088135 -62.68896484 179.31567383 C-54.66239503 179.78028565 -46.80782926 180.84723372 -38.89282227 182.21142578 C-27.77183124 184.07733215 -16.70129034 184.49711881 -5.43896484 184.50317383 C-3.61751953 184.52154297 -3.61751953 184.52154297 -1.75927734 184.5402832 C9.03010127 184.55791291 19.10009761 183.41081276 27.12353516 175.56567383 C32.79233458 167.14345754 33.27658134 159.33321546 32.31103516 149.31567383 C30.67498063 142.99543937 26.63963748 138.87053837 21.31103516 135.31567383 C13.86961423 131.38428045 7.05017053 130.71551552 -1.25927734 130.70629883 C-2.42151825 130.68976257 -3.58375916 130.67322632 -4.78121948 130.65618896 C-8.45885644 130.60797207 -12.13608067 130.58639566 -15.81396484 130.56567383 C-18.32179782 130.53749229 -20.82961178 130.50756184 -23.33740234 130.47583008 C-29.45477495 130.39895833 -35.57087329 130.3581901 -41.68896484 130.31567383 C-41.68896484 117.77567383 -41.68896484 105.23567383 -41.68896484 92.31567383 C-38.40056641 92.27829102 -35.11216797 92.2409082 -31.72412109 92.20239258 C-28.51694325 92.15609764 -25.30987843 92.10489292 -22.1027832 92.05322266 C-19.88475492 92.02009846 -17.66664487 91.99202814 -15.44848633 91.96923828 C-12.2483456 91.93546181 -9.04894572 91.88313429 -5.84912109 91.82739258 C-4.86750504 91.82100266 -3.88588898 91.81461273 -2.87452698 91.80802917 C6.21830933 91.61661591 13.77449815 89.85983768 20.44775391 83.44067383 C27.16125621 75.78418482 29.2120111 68.88744838 28.76806641 58.71801758 C28.00803326 53.05999304 26.15567728 50.33325115 22.31103516 46.12817383 C13.60383939 40.86757639 4.49718382 39.65290008 -5.50146484 39.81567383 C-7.28290894 39.82836304 -7.28290894 39.82836304 -9.1003418 39.84130859 C-22.36796741 40.09594066 -35.38319047 41.91670244 -48.49121094 43.8581543 C-52.54993998 44.43885809 -56.6107449 44.89592205 -60.68896484 45.31567383 C-61.02583028 40.77426193 -61.3578361 36.23250733 -61.68896484 31.69067383 C-61.83205078 29.76288086 -61.83205078 29.76288086 -61.97802734 27.79614258 C-62.06826172 26.55219727 -62.15849609 25.30825195 -62.25146484 24.02661133 C-62.33525391 22.88498535 -62.41904297 21.74335938 -62.50537109 20.56713867 C-62.67998216 17.47475815 -62.72177507 14.41213846 -62.68896484 11.31567383 C-52.41669649 7.16594953 -42.15099622 4.68313876 -31.25341797 2.77392578 C-29.5233772 2.46477817 -27.79786225 2.12930542 -26.07763672 1.76953125 C-17.38976419 0.07206626 -8.81857161 -0.02277611 0 0 Z " fill="#FDFEFE" transform="translate(330.68896484375,146.684326171875)"/>
</svg>
